# xmcd
#
# Track frame offsets:
#	182
#	35105
#	48320
#	70715
#	87977
#	112887
#	137215
#	164487
#	179995
#	196820
#	214032
#	234495
#
# Disc length: 3454 seconds
#
# Revision: 1
# Processed by: cddbd v1.4PL0 Copyright (c) Steve Scherf et al.
# Submitted via: EasyCDDAExtractor 4.6.9.1
#
DISCID=ae0d7c0c
DTITLE=Peter Green - Blues For Dhyana
DYEAR=1998
DGENRE=Blues
TTITLE0=A Fool No More
TTITLE1=Born Under A Bad Sign
TTITLE2=I Could Not Ask For More
TTITLE3=Walking the Road
TTITLE4=Last Train To San Antone
TTITLE5=Lost My Love
TTITLE6=Just Another Guy
TTITLE7=What Am I Doing Here
TTITLE8=Same Old Blues
TTITLE9=Liquor And You
TTITLE10=Six String Guitar
TTITLE11=One Woman Love
EXTD=
EXTT0=
EXTT1=
EXTT2=
EXTT3=
EXTT4=
EXTT5=
EXTT6=
EXTT7=
EXTT8=
EXTT9=
EXTT10=
EXTT11=
PLAYORDER=
